<svg xmlns="http://www.w3.org/2000/svg" xmlns:xlink="http://www.w3.org/1999/xlink" viewBox="0,0,256,256" width="32px" height="32px" fill-rule="nonzero"><g fill="#fdfafa" fill-rule="nonzero" stroke="none" stroke-width="1" stroke-linecap="butt" stroke-linejoin="miter" stroke-miterlimit="10" stroke-dasharray="" stroke-dashoffset="0" font-family="none" font-weight="none" font-size="none" text-anchor="none" style="mix-blend-mode: normal"><g transform="scale(8,8)"><path d="M16,4c-2.9175,0 -5.83474,0.34632 -8.74609,1.03711c-1.09852,0.26025 -1.95636,1.11901 -2.2168,2.2168c-1.38155,5.82466 -1.38169,11.6732 0.00195,17.49805c0.25942,1.09534 1.1156,1.95152 2.21094,2.21094c5.82576,1.38259 11.6762,1.38259 17.50195,0c0.00065,-0.00065 0.0013,-0.0013 0.00195,-0.00195c1.09358,-0.26088 1.94634,-1.11467 2.20703,-2.20898c0.00065,-0.00065 0.0013,-0.0013 0.00195,-0.00195c1.38259,-5.82473 1.38154,-11.67146 0,-17.49609c-0.26053,-1.09769 -1.11901,-1.95636 -2.2168,-2.2168c-2.91135,-0.69079 -5.82859,-1.03711 -8.74609,-1.03711zM16,5.99805c2.7595,0 5.51951,0.32816 8.28516,0.98438c0.35221,0.08356 0.64886,0.38021 0.73242,0.73242c1.31246,5.53336 1.3115,11.04095 -0.00195,16.57422c-0.08331,0.34969 -0.37814,0.64344 -0.72656,0.72656c-5.53359,1.31295 -11.04453,1.31326 -16.57812,0c-0.34862,-0.08258 -0.64398,-0.37595 -0.72656,-0.72461c0,-0.00065 0,-0.0013 0,-0.00195c-1.31436,-5.53311 -1.3144,-11.04088 -0.00195,-16.57422c0.08356,-0.35221 0.37894,-0.64868 0.73242,-0.73242c0.00065,0 0.0013,0 0.00195,0c2.76565,-0.65621 5.52371,-0.98437 8.2832,-0.98437zM10.5,10c-0.82843,0 -1.5,0.67157 -1.5,1.5c0,0.82843 0.67157,1.5 1.5,1.5c0.82843,0 1.5,-0.67157 1.5,-1.5c0,-0.82843 -0.67157,-1.5 -1.5,-1.5zM10.5,14c-0.326,0 -0.65252,0.08486 -0.97852,0.25586c-0.141,0.074 -0.23481,0.21895 -0.25781,0.37695c-0.351,2.438 -0.351,5.29638 0,7.73438c0.023,0.158 0.11681,0.30295 0.25781,0.37695c0.652,0.342 1.30503,0.342 1.95703,0c0.141,-0.074 0.23481,-0.21895 0.25781,-0.37695c0.351,-2.438 0.351,-5.29637 0,-7.73438c-0.023,-0.158 -0.11681,-0.30295 -0.25781,-0.37695c-0.326,-0.171 -0.65252,-0.25586 -0.97852,-0.25586zM15.23242,14.01953c-0.21862,0.02694 -0.45125,0.0845 -0.6875,0.1875c-0.155,0.067 -0.2592,0.21777 -0.2832,0.38477c-0.349,2.434 -0.34805,5.34339 0.00195,7.77539c0.023,0.158 0.11681,0.30295 0.25781,0.37695c0.627,0.328 1.50486,0.34011 2.13086,0.03711c0.185,-0.089 0.276,-0.30872 0.25,-0.51172c-0.495,-3.854 -0.02156,-5.00291 1.27344,-5.37891c1.126,-0.328 2.80645,0.36919 1.93945,5.36719c-0.036,0.211 0.05309,0.43925 0.24609,0.53125c0.626,0.297 1.50095,0.28022 2.12695,-0.05078c0.134,-0.071 0.23186,-0.21523 0.25586,-0.36523c1.577,-9.786 -4.80961,-9.1005 -6.09961,-7.1875c0.017,-0.273 -0.00514,-0.79387 -0.11914,-0.92187c-0.11025,-0.1245 -0.63709,-0.32495 -1.29297,-0.24414z"></path></g></g></svg>