<svg width="42" height="42" viewBox="0 0 42 42" fill="none" xmlns="http://www.w3.org/2000/svg">
<path d="M16.3992 16.3327L16.3993 16.251L16.4008 15.5377L16.4008 15.5371C16.4009 15.5161 16.3947 15.4956 16.3831 15.4781C16.3714 15.4606 16.3549 15.447 16.3355 15.4389C16.3161 15.4309 16.2948 15.4288 16.2742 15.4329C16.2537 15.437 16.2348 15.4471 16.22 15.4619L16.2195 15.4623L11.1146 20.5673C11.1047 20.5772 11.097 20.5889 11.0917 20.6017C11.0864 20.6146 11.0837 20.6284 11.0837 20.6423C11.0837 20.6562 11.0865 20.67 11.0919 20.6828C11.0972 20.6957 11.1051 20.7074 11.115 20.7172L11.1162 20.7184L16.2229 25.8251L16.2257 25.8279C16.2402 25.8426 16.2588 25.8527 16.2791 25.8568C16.2994 25.8609 16.3204 25.8588 16.3395 25.8509C16.3586 25.8429 16.3749 25.8295 16.3863 25.8122C16.3977 25.7949 16.4036 25.7746 16.4034 25.7539L16.4033 25.7467L16.4034 25.7467C16.4042 25.4545 16.5206 25.1744 16.7272 24.9678C16.9339 24.7612 17.2139 24.6447 17.5061 24.6439L17.5069 24.6439L28.3863 24.6297L28.387 24.6297C28.4008 24.6297 28.4144 24.627 28.4271 24.6217C28.4399 24.6164 28.4514 24.6087 28.4611 24.599C28.4709 24.5892 28.4786 24.5777 28.4839 24.565C28.4891 24.5524 28.4918 24.5388 28.4918 24.5252C28.4918 24.5251 28.4918 24.525 28.4918 24.5249L28.4896 23.5406C28.4896 23.5402 28.4896 23.5397 28.4896 23.5393C28.4882 23.32 28.5521 23.1053 28.6732 22.9225C28.7945 22.7393 28.9676 22.5964 29.1705 22.5121C29.3734 22.4278 29.5969 22.4059 29.8123 22.4493C30.0271 22.4925 30.2243 22.5987 30.3786 22.7542M16.3992 16.3327L30.0244 23.107M16.3992 16.3327L16.4045 16.3485C16.4137 16.462 16.4405 16.5736 16.4839 16.6792C16.5394 16.814 16.6211 16.9364 16.7241 17.0395C16.8272 17.1425 16.9496 17.2241 17.0844 17.2796C17.2188 17.335 17.3629 17.3632 17.5082 17.3628C17.5086 17.3628 17.509 17.3628 17.5093 17.3628L41.0864 17.3636C41.0866 17.3636 41.0867 17.3636 41.0868 17.3636C41.1149 17.3638 41.1418 17.3751 41.1617 17.395C41.1816 17.4149 41.1928 17.4418 41.193 17.4698C41.193 17.47 41.193 17.4701 41.193 17.4702L41.1939 41.092C41.1938 41.12 41.1827 41.1468 41.1629 41.1666C41.1432 41.1863 41.1166 41.1974 41.0887 41.1976C41.0886 41.1976 41.0885 41.1976 41.0884 41.1976L0.936033 41.1968C0.935832 41.1968 0.935628 41.1968 0.935426 41.1968C0.907165 41.1965 0.880109 41.1852 0.860094 41.1652C0.840112 41.1452 0.828771 41.1182 0.828469 41.09C0.828466 41.0897 0.828465 41.0895 0.828463 41.0892L0.826968 0.936638C0.826969 0.936496 0.82697 0.936354 0.826971 0.936212C0.827187 0.907884 0.838535 0.880778 0.858565 0.860749C0.878592 0.840722 0.905693 0.829374 0.934017 0.829154C0.934162 0.829154 0.934308 0.829152 0.934454 0.829152L41.0892 0.82845C41.0894 0.828452 41.0896 0.828452 41.0898 0.828454C41.1181 0.828709 41.1452 0.840057 41.1652 0.86008C41.1852 0.880136 41.1966 0.907267 41.1968 0.935599C41.1968 0.935739 41.1968 0.93588 41.1968 0.93602L41.2015 8.22892C41.2015 8.22928 41.2015 8.22964 41.2015 8.23C41.201 8.25851 41.1895 8.28572 41.1693 8.3059C41.1491 8.32608 41.1219 8.33762 41.0933 8.33809C41.093 8.33809 41.0926 8.33809 41.0923 8.3381L10.0789 8.33034C10.0784 8.33034 10.0779 8.33034 10.0774 8.33034C9.93218 8.3299 9.78826 8.35814 9.65393 8.41344C9.51916 8.46892 9.39671 8.55055 9.29365 8.65361C9.19059 8.75667 9.10897 8.87912 9.05348 9.01389C8.99816 9.14828 8.96992 9.29226 8.97038 9.43758V9.4367L9.47038 9.43668L8.97038 9.43883L8.9712 31.8459L8.97123 31.8495C8.97332 32.1411 9.09011 32.4202 9.29633 32.6264C9.50255 32.8326 9.78164 32.9494 10.0733 32.9515H10.0769L28.385 32.9522V32.9523L28.3962 32.9521C28.4084 32.9518 28.4206 32.954 28.4319 32.9585C28.4432 32.9631 28.4535 32.9699 28.4622 32.9785C28.4661 32.9825 28.4696 32.9867 28.4728 32.9913C28.4765 32.9968 28.4797 33.0026 28.4821 33.0088C28.4867 33.0201 28.4889 33.0322 28.4886 33.0445L28.4885 33.0444L28.4885 33.0567L28.49 33.7445M16.3992 16.3327L28.9885 33.0557M30.3786 22.7542C30.379 22.7546 30.3794 22.755 30.3798 22.7554L30.0244 23.107M30.3786 22.7542L30.3779 22.7535L30.0244 23.107M30.3786 22.7542L35.4824 27.858C35.6895 28.0651 35.8061 28.3459 35.8066 28.6388C35.8071 28.9317 35.6915 29.2129 35.4851 29.4207L35.4839 29.4219L30.3783 34.5275L30.3773 34.5286C30.2223 34.6827 30.0251 34.7874 29.8107 34.8296C29.5962 34.8718 29.3741 34.8496 29.1722 34.7657C28.9704 34.6819 28.7979 34.5401 28.6765 34.3584C28.5551 34.1767 28.4902 33.9631 28.49 33.7445M30.0244 23.107L35.1289 28.2115C35.2424 28.3251 35.3064 28.4791 35.3066 28.6397C35.3069 28.8003 35.2435 28.9544 35.1304 29.0684L30.0248 34.174C29.9398 34.2584 29.8317 34.3159 29.7141 34.339C29.5965 34.3622 29.4747 34.35 29.3641 34.304C29.2534 34.258 29.1588 34.1803 29.0922 34.0807C29.0257 33.981 28.9901 33.8639 28.99 33.744M28.49 33.7445L28.49 33.7451L28.99 33.744M28.49 33.7445L28.99 33.744M28.99 33.744L28.9885 33.0557M28.9885 33.0557C28.9903 32.9759 28.9759 32.8967 28.9462 32.8226C28.9165 32.7486 28.8721 32.6814 28.8157 32.625C28.7593 32.5686 28.6921 32.5242 28.6181 32.4945C28.544 32.4648 28.4648 32.4504 28.385 32.4522L28.9885 33.0557Z" fill="#312353" stroke="black"/>
</svg>
